Coordinates
version=1
nRows=17
nColumns=63
inDegrees=yes

Units are S.I. units (second, meters, Newtons, ...)
If the header above contains a line with 'inDegrees', this indicates whether rotational values are in degrees (yes) or radians (no).

endheader
time	pelvis_tilt	pelvis_list	pelvis_rotation	pelvis_tx	pelvis_ty	pelvis_tz	hip_flexion_r	hip_adduction_r	hip_rotation_r	knee_angle_r	knee_angle_r_beta	ankle_angle_r	subtalar_angle_r	mtp_angle_r	hip_flexion_l	hip_adduction_l	hip_rotation_l	knee_angle_l	knee_angle_l_beta	ankle_angle_l	subtalar_angle_l	mtp_angle_l	L5_S1_Flex_Ext	L5_S1_Lat_Bending	L5_S1_axial_rotation	L4_L5_Flex_Ext	L4_L5_Lat_Bending	L4_L5_axial_rotation	L3_L4_Flex_Ext	L3_L4_Lat_Bending	L3_L4_axial_rotation	L2_L3_Flex_Ext	L2_L3_Lat_Bending	L2_L3_axial_rotation	L1_L2_Flex_Ext	L1_L2_Lat_Bending	L1_L2_axial_rotation	L1_T12_Flex_Ext	L1_T12_Lat_Bending	L1_T12_axial_rotation	Abs_r3	Abs_r2	Abs_r1	Abs_t1	Abs_t2	neck_flexion	neck_bending	neck_rotation	arm_flex_r	arm_add_r	arm_rot_r	elbow_flex_r	pro_sup_r	wrist_flex_r	wrist_dev_r	arm_flex_l	arm_add_l	arm_rot_l	elbow_flex_l	pro_sup_l	wrist_flex_l	wrist_dev_l
1.425532	-8.838673	-5.597034	80.498518	0.225580	0.421880	0.911163	2.529550	-6.397563	-20.314829	9.050301	0.157958	24.188317	15.963709	0.000000	5.833333	4.249242	-10.447082	12.822638	0.223797	21.253205	15.069338	0.000000	-0.042808	-0.356585	-0.836631	-0.079498	-0.474258	-0.888920	-0.070329	-0.867001	-0.888920	-0.048925	-0.867001	-0.732052	-0.039751	-0.727148	-0.679763	-0.024460	-0.552350	-0.627473	-0.305772	-4.033762	-4.653090	0.000000	0.000000	-10.830231	5.066983	6.755574	34.854707	8.570509	69.336083	122.422108	60.657217	-1.705004	24.230719	41.514727	-1.600715	86.970722	114.619168	52.564498	1.147221	4.130137
1.446809	-8.877538	-5.606105	80.507746	0.225233	0.421713	0.910510	2.419254	-6.437661	-20.150990	8.866875	0.154756	23.963826	15.688753	0.000000	5.798197	4.335523	-10.291141	12.781207	0.223074	21.263548	14.887885	0.000000	-0.031352	-0.364009	-0.854386	-0.058223	-0.484132	-0.907785	-0.051508	-0.885052	-0.907785	-0.035832	-0.885052	-0.747588	-0.029113	-0.742287	-0.694189	-0.017914	-0.563850	-0.640790	-0.223941	-4.117743	-4.751839	0.000000	0.000000	-11.035331	5.167831	7.072289	34.689570	8.443977	69.498789	122.178734	55.668261	0.306492	24.272649	41.499582	-1.775405	87.480987	114.889534	53.247854	-1.793021	3.287381
1.468085	-8.915078	-5.621444	80.446542	0.225037	0.421475	0.909867	2.325214	-6.463348	-19.877339	8.677473	0.151450	23.735320	15.367157	0.000000	5.749914	4.411553	-10.158415	12.713786	0.221897	21.288185	14.680405	0.000000	-0.021412	-0.372305	-0.865001	-0.039765	-0.495165	-0.919064	-0.035178	-0.905221	-0.919064	-0.024472	-0.905221	-0.756876	-0.019883	-0.759204	-0.702814	-0.012235	-0.576700	-0.648751	-0.152945	-4.211585	-4.810878	0.000000	0.000000	-11.123088	5.192933	7.241166	34.369471	8.302039	69.753015	121.936787	50.874007	2.119884	24.218877	41.310356	-1.961982	87.721920	115.047237	54.034119	-3.843374	2.578513
1.489362	-8.931735	-5.632283	80.359947	0.224878	0.421199	0.909257	2.235919	-6.464628	-19.573001	8.499410	0.148343	23.524654	15.041617	0.000000	5.689434	4.463637	-10.012728	12.649701	0.220779	21.337839	14.448818	0.000000	-0.013664	-0.377201	-0.886575	-0.025376	-0.501677	-0.941986	-0.022449	-0.917127	-0.941986	-0.015617	-0.917127	-0.775753	-0.012689	-0.769188	-0.720342	-0.007808	-0.584284	-0.664931	-0.097602	-4.266974	-4.930866	0.000000	0.000000	-11.120287	5.037661	7.430690	34.084648	8.161676	70.199463	121.610212	45.350335	3.814411	23.937720	40.838278	-2.154718	87.522792	115.106286	54.884527	-4.626465	2.386152
1.510638	-8.935175	-5.619969	80.245909	0.224801	0.420938	0.908677	2.125514	-6.446852	-19.193247	8.308775	0.145015	23.323366	14.667871	0.000000	5.592963	4.501959	-9.876548	12.575177	0.219478	21.397129	14.209571	0.000000	-0.009027	-0.383059	-0.903283	-0.016764	-0.509469	-0.959738	-0.014830	-0.931371	-0.959738	-0.010317	-0.931371	-0.790373	-0.008382	-0.781135	-0.733918	-0.005158	-0.593359	-0.677462	-0.064479	-4.333245	-5.023790	0.000000	0.000000	-11.076472	4.830815	7.491736	33.851577	7.989318	70.801650	121.309620	40.506750	4.836810	23.212981	40.278276	-2.344446	87.174448	115.105017	55.528586	-4.547511	2.450044
1.531915	-8.916391	-5.572116	80.134745	0.224749	0.420753	0.908127	1.972595	-6.405112	-18.769131	8.095035	0.141285	23.130973	14.256394	0.000000	5.450636	4.523983	-9.734044	12.493307	0.218049	21.461023	13.968339	0.000000	-0.007893	-0.389226	-0.912940	-0.014659	-0.517671	-0.969998	-0.012968	-0.946365	-0.969998	-0.009021	-0.946365	-0.798822	-0.007330	-0.793710	-0.741763	-0.004510	-0.602912	-0.684705	-0.056382	-4.403007	-5.077497	0.000000	0.000000	-11.056972	4.598129	7.434111	33.716143	7.783347	71.584929	121.046832	35.583394	4.952653	22.208791	39.748491	-2.504287	86.784899	115.001640	55.753447	-3.490572	2.592879
1.553191	-8.893671	-5.504076	80.003978	0.224777	0.420648	0.907594	1.801701	-6.351813	-18.285639	7.858351	0.137154	22.953906	13.821846	0.000000	5.278578	4.540309	-9.628487	12.397218	0.216372	21.514149	13.751791	0.000000	-0.006476	-0.398350	-0.896921	-0.012027	-0.529805	-0.952978	-0.010640	-0.968548	-0.952978	-0.007402	-0.968548	-0.784806	-0.006014	-0.812315	-0.728748	-0.003700	-0.617044	-0.672690	-0.046258	-4.506214	-4.988404	0.000000	0.000000	-11.108169	4.397455	7.170043	33.641518	7.520799	72.508239	120.859391	31.572955	4.050881	21.245545	39.358187	-2.608902	86.497938	114.803756	55.494626	-1.755421	2.564098
1.574468	-8.844445	-5.394300	79.910658	0.224759	0.420676	0.907046	1.571308	-6.275371	-17.844870	7.595881	0.132573	22.798808	13.419736	0.000000	5.057410	4.542934	-9.482032	12.298912	0.214657	21.567565	13.533121	0.000000	-0.009136	-0.405764	-0.867801	-0.016966	-0.539666	-0.922039	-0.015009	-0.986574	-0.922039	-0.010441	-0.986574	-0.759326	-0.008483	-0.827433	-0.705088	-0.005220	-0.628528	-0.650851	-0.065255	-4.590080	-4.826450	0.000000	0.000000	-11.233117	4.218306	6.841494	33.664662	7.205508	73.446672	120.767832	28.396520	2.700501	20.290808	38.974506	-2.648096	86.116102	114.429339	54.873120	0.900979	2.506072
1.595745	-8.775693	-5.264090	79.819302	0.224703	0.420822	0.906452	1.313473	-6.179928	-17.417401	7.317743	0.127719	22.672245	13.055702	0.000000	4.806724	4.532968	-9.353549	12.196014	0.212861	21.610721	13.331309	0.000000	-0.012968	-0.410845	-0.820917	-0.024083	-0.546424	-0.872224	-0.021305	-0.998929	-0.872224	-0.014821	-0.998929	-0.718302	-0.012042	-0.837796	-0.666995	-0.007410	-0.636399	-0.615688	-0.092629	-4.647564	-4.565695	0.000000	0.000000	-11.426055	4.035025	6.377282	33.711494	6.877283	74.128680	120.831209	26.947774	1.404323	19.576801	38.485501	-2.650737	85.584952	113.921454	54.635294	3.801781	2.502259
1.617021	-8.697000	-5.109570	79.768612	0.224553	0.421135	0.905792	1.014931	-6.075443	-17.048363	7.016211	0.122456	22.558257	12.736092	0.000000	4.522827	4.525654	-9.190025	12.079857	0.210833	21.620184	13.145364	0.000000	-0.019506	-0.412754	-0.772335	-0.036224	-0.548963	-0.820606	-0.032046	-1.003570	-0.820606	-0.022293	-1.003570	-0.675793	-0.018113	-0.841688	-0.627522	-0.011146	-0.639356	-0.579251	-0.139327	-4.669156	-4.295494	0.000000	0.000000	-11.719822	3.824434	5.938497	33.739466	6.589428	74.319166	121.042266	27.134625	0.464909	19.148327	37.785331	-2.642973	84.834227	113.266797	54.908411	6.864120	2.636474
1.638298	-8.604277	-4.951935	79.740801	0.224325	0.421583	0.905111	0.716966	-5.963397	-16.794026	6.725649	0.117385	22.481579	12.557300	0.000000	4.235796	4.502902	-9.074161	11.964692	0.208823	21.606602	13.063597	0.000000	-0.027843	-0.411237	-0.717150	-0.051707	-0.546945	-0.761972	-0.045743	-0.999881	-0.761972	-0.031822	-0.999881	-0.627507	-0.025855	-0.838594	-0.582685	-0.015909	-0.637006	-0.537863	-0.198879	-4.651992	-3.988576	0.000000	0.000000	-12.061233	3.614014	5.433752	33.609719	6.355286	73.751735	121.441966	29.344896	0.196966	19.205593	36.990938	-2.606187	83.993168	112.463366	55.798327	9.756144	2.651070
1.659574	-8.524959	-4.794270	79.738668	0.224070	0.422140	0.904407	0.427768	-5.863201	-16.558463	6.446806	0.112518	22.431084	12.368079	0.000000	3.950240	4.496662	-8.924736	11.839143	0.206632	21.547691	12.978733	0.000000	-0.037042	-0.410805	-0.658815	-0.068791	-0.546371	-0.699991	-0.060857	-0.998832	-0.699991	-0.042336	-0.998832	-0.576464	-0.034397	-0.837714	-0.535288	-0.021166	-0.636338	-0.494112	-0.264589	-4.647113	-3.664134	0.000000	0.000000	-12.427575	3.488772	4.838340	33.213414	6.207569	72.218347	121.949069	33.387560	1.268776	19.803978	36.097568	-2.575820	83.125608	111.597845	57.467758	12.048166	2.394665
1.680851	-8.446853	-4.639053	79.766707	0.223775	0.422770	0.903694	0.146971	-5.766378	-16.387113	6.185886	0.107964	22.403781	12.220658	0.000000	3.672237	4.490093	-8.771760	11.713265	0.204435	21.459727	12.939382	0.000000	-0.047403	-0.409561	-0.607077	-0.088033	-0.544717	-0.645020	-0.077879	-0.995808	-0.645020	-0.054177	-0.995808	-0.531193	-0.044019	-0.835178	-0.493250	-0.027086	-0.634411	-0.455308	-0.338598	-4.633040	-3.376382	0.000000	0.000000	-12.792241	3.460648	4.208178	32.611093	6.142747	69.762657	122.516054	39.337802	3.877006	20.872289	35.083537	-2.589299	82.347216	110.884593	60.136294	12.887025	1.960440
1.702128	-8.386325	-4.487895	79.823724	0.223481	0.423430	0.903002	-0.118028	-5.690695	-16.307247	5.957721	0.103982	22.399795	12.131375	0.000000	3.414845	4.495781	-8.611102	11.601135	0.202478	21.348715	12.925148	0.000000	-0.058395	-0.410180	-0.571940	-0.108446	-0.545539	-0.607686	-0.095937	-0.997312	-0.607686	-0.066740	-0.997312	-0.500447	-0.054226	-0.836439	-0.464701	-0.033367	-0.635369	-0.428955	-0.417111	-4.640038	-3.180956	0.000000	0.000000	-13.116874	3.540491	3.607864	31.739491	6.177876	66.290237	123.291317	51.674698	8.731385	22.065824	33.940537	-2.631774	81.750673	110.512217	63.762995	11.599573	1.789009
1.723404	-8.344315	-4.357459	79.885460	0.223183	0.424033	0.902297	-0.346794	-5.638333	-16.282946	5.772371	0.100747	22.412405	12.077272	0.000000	3.192033	4.515179	-8.441951	11.497812	0.200675	21.225753	12.895668	0.000000	-0.067668	-0.411994	-0.547141	-0.125667	-0.547953	-0.581337	-0.111172	-1.001723	-0.581337	-0.077338	-1.001723	-0.478748	-0.062837	-0.840139	-0.444552	-0.038666	-0.638179	-0.410356	-0.483348	-4.660563	-3.043034	0.000000	0.000000	-13.365796	3.730562	3.063930	30.996981	6.121806	62.880926	124.044860	62.228734	13.061765	23.588443	32.890673	-2.615619	81.622084	110.499075	67.496221	7.726155	1.669160
1.744681	-8.307503	-4.262863	79.948197	0.222851	0.424512	0.901587	-0.524959	-5.594976	-16.290209	5.631399	0.098286	22.434014	12.034507	0.000000	3.022234	4.533975	-8.254606	11.411912	0.199175	21.115693	12.830230	0.000000	-0.073330	-0.411957	-0.547998	-0.136181	-0.547903	-0.582248	-0.120474	-1.001632	-0.582248	-0.083809	-1.001632	-0.479498	-0.068094	-0.840063	-0.445248	-0.041901	-0.638121	-0.410998	-0.523788	-4.660140	-3.047799	0.000000	0.000000	-13.520565	3.942957	2.707598	30.414113	6.042941	59.925019	124.722292	69.937157	16.625467	25.513212	32.125843	-2.590545	82.036295	110.883578	70.525337	1.762371	1.243907
1.765957	-8.259626	-4.216867	80.007795	0.222457	0.424806	0.900866	-0.642075	-5.543330	-16.318368	5.532362	0.096558	22.462184	11.992521	0.000000	2.917226	4.535064	-8.042882	11.347724	0.198055	21.041934	12.717044	0.000000	-0.073960	-0.406147	-0.582373	-0.137351	-0.540176	-0.618772	-0.121508	-0.987506	-0.618772	-0.084529	-0.987506	-0.509577	-0.068679	-0.828215	-0.473178	-0.042261	-0.629122	-0.436780	-0.528287	-4.594417	-3.238985	0.000000	0.000000	-13.574377	4.090034	2.636210	30.081350	5.957150	57.805082	125.269435	74.222620	19.158620	27.518478	31.735372	-2.631543	82.922259	111.634347	72.420648	-5.289313	0.343584
